<svg width="115" height="74" viewBox="0 0 115 74" fill="none" xmlns="http://www.w3.org/2000/svg">
<path d="M103.87 33.2868C103.92 33.9189 103.967 34.5524 103.967 35.1975V38.3644C103.967 51.6894 93.126 62.5295 79.8018 62.5295H35.1975C21.8733 62.5295 11.0332 51.6894 11.0332 38.3644V35.1975C11.0332 21.8732 21.8733 11.0325 35.1975 11.0325H77.1722C77.5099 6.97962 78.9744 3.19149 81.3668 0.039772C80.8475 0.0166321 80.3268 0 79.8018 0H35.1975C15.7586 0 0 15.7586 0 35.1975V38.3644C0 57.8041 15.7586 73.5627 35.1975 73.5627H79.8018C99.2407 73.5627 115 57.8041 115 38.3644V35.1975C115 32.3763 114.658 29.6368 114.032 27.0073C111.336 29.9912 107.818 32.2027 103.87 33.2868Z" fill="#001C43"></path>
<path d="M100.282 24.3958C100.832 24.3958 101.371 24.3545 101.9 24.2808C106.63 23.6176 110.44 20.0927 111.525 15.5112C111.729 14.6535 111.84 13.7589 111.84 12.8383C111.84 6.45527 106.665 1.28148 100.282 1.28148C98.0843 1.28148 96.0297 1.89476 94.281 2.96004C90.9492 4.9879 88.7246 8.65309 88.7246 12.8383C88.7246 12.8722 88.7268 12.9062 88.7275 12.9395C88.7817 19.2762 93.9331 24.3958 100.282 24.3958Z" fill="#FE6C5D"></path>
</svg>